<svg width="91" height="24" viewBox="0 0 91 24" fill="none" xmlns="http://www.w3.org/2000/svg">
    <g clip-path="url(#clip0_185_457)">
        <path d="M45.4612 4.99999V19C45.4606 19.0528 45.4393 19.1033 45.4021 19.1406C45.365 19.178 45.3147 19.1993 45.2621 19.2H43.8123C43.4795 19.2002 43.152 19.1166 42.8598 18.9568C42.5675 18.797 42.3199 18.5662 42.1395 18.2853L35.5597 8.07199L35.7854 13.1733V19C35.785 19.0266 35.7795 19.0529 35.769 19.0773C35.7585 19.1018 35.7434 19.1239 35.7244 19.1425C35.7054 19.1611 35.683 19.1757 35.6584 19.1856C35.6337 19.1954 35.6074 19.2003 35.5809 19.2H33.6638C33.6112 19.1993 33.5609 19.178 33.5237 19.1406C33.4866 19.1033 33.4653 19.0528 33.4647 19V4.99999C33.4653 4.94716 33.4866 4.89669 33.5237 4.85933C33.5609 4.82197 33.6112 4.80068 33.6638 4.79999H35.1056C35.438 4.80017 35.7651 4.88367 36.0572 5.04293C36.3493 5.20218 36.5972 5.43216 36.7785 5.71199L43.3582 15.9093L43.1538 10.8267V4.99999C43.1538 4.94694 43.1748 4.89607 43.2121 4.85857C43.2495 4.82106 43.3001 4.79999 43.3529 4.79999H45.2701C45.3213 4.80269 45.3695 4.82487 45.405 4.86202C45.4405 4.89917 45.4606 4.9485 45.4612 4.99999V4.99999Z" fill="black" />
        <path d="M65.0545 19.2H63.0259C62.9942 19.1997 62.963 19.1918 62.935 19.177C62.9069 19.1621 62.8828 19.1408 62.8646 19.1147C62.8464 19.0886 62.8347 19.0586 62.8304 19.027C62.8262 18.9955 62.8294 18.9634 62.84 18.9334L68.2143 4.99202C68.2373 4.93365 68.2777 4.88386 68.33 4.84948C68.3823 4.8151 68.4439 4.79782 68.5064 4.80002H71.0475C71.1077 4.80054 71.1664 4.81909 71.2161 4.85329C71.2657 4.88749 71.3041 4.9358 71.3263 4.99202L76.6847 18.9334C76.6952 18.9634 76.6985 18.9955 76.6942 19.027C76.69 19.0586 76.6782 19.0886 76.6601 19.1147C76.6419 19.1408 76.6178 19.1621 76.5897 19.177C76.5617 19.1918 76.5305 19.1997 76.4988 19.2H74.4702C74.4296 19.2002 74.3899 19.1881 74.3562 19.1653C74.3226 19.1424 74.2966 19.1099 74.2816 19.072L69.9509 7.60535C69.9369 7.56674 69.9115 7.53339 69.878 7.50981C69.8445 7.48624 69.8046 7.47359 69.7637 7.47359C69.7228 7.47359 69.6829 7.48624 69.6494 7.50981C69.6159 7.53339 69.5904 7.56674 69.5765 7.60535L65.2457 19.072C65.2306 19.1104 65.2042 19.1431 65.17 19.166C65.1359 19.1889 65.0956 19.2007 65.0545 19.2V19.2Z" fill="black" />
        <path d="M90.7684 18.8773L86.7377 13.7067C89.0132 13.2747 90.3435 11.7333 90.3435 9.36799C90.3435 6.65065 88.5831 4.79999 85.4684 4.79999H79.8472C79.8079 4.79999 79.769 4.8078 79.7328 4.82297C79.6965 4.83815 79.6636 4.86039 79.636 4.88841C79.6083 4.91642 79.5865 4.94966 79.5717 4.98621C79.5569 5.02275 79.5495 5.06188 79.5498 5.10132C79.5498 5.61054 79.7512 6.0989 80.1098 6.45897C80.4683 6.81904 80.9546 7.02132 81.4616 7.02132H85.2348C87.1174 7.02132 88.0202 7.98932 88.0202 9.38665C88.0202 10.784 87.1386 11.7733 85.2348 11.7733H79.8472C79.7681 11.774 79.6925 11.8061 79.6368 11.8625C79.5811 11.919 79.5498 11.9952 79.5498 12.0747V19.008C79.5498 19.061 79.5708 19.1119 79.6081 19.1494C79.6455 19.1869 79.6961 19.208 79.749 19.208H81.6661C81.7187 19.2073 81.7689 19.186 81.8061 19.1486C81.8433 19.1113 81.8645 19.0608 81.8652 19.008V13.832H84.0771L87.5741 18.416C87.7614 18.6613 88.0027 18.8597 88.2791 18.9957C88.5555 19.1317 88.8595 19.2017 89.1673 19.2H90.6223C90.6587 19.198 90.6937 19.186 90.7237 19.1654C90.7538 19.1448 90.7776 19.1163 90.7926 19.0831C90.8077 19.0498 90.8134 19.0131 90.8091 18.9768C90.8048 18.9405 90.7907 18.9061 90.7684 18.8773V18.8773Z" fill="black" />
        <path d="M58.9925 4.79999H50.0973C50.0269 4.79999 49.9594 4.82808 49.9096 4.87809C49.8598 4.9281 49.8318 4.99593 49.8318 5.06665C49.8318 5.32334 49.8821 5.57752 49.9799 5.81467C50.0778 6.05182 50.2211 6.2673 50.4019 6.44881C50.5826 6.63032 50.7971 6.7743 51.0333 6.87253C51.2694 6.97076 51.5225 7.02132 51.7781 7.02132H58.9925C59.0188 7.02168 59.0448 7.01675 59.0692 7.00683C59.0935 6.9969 59.1156 6.98218 59.1341 6.96354C59.1527 6.9449 59.1674 6.92271 59.1772 6.89828C59.1871 6.87385 59.192 6.84768 59.1917 6.82132V4.99999C59.1917 4.97372 59.1865 4.94772 59.1765 4.92345C59.1665 4.89919 59.1518 4.87714 59.1333 4.85857C59.1148 4.83999 59.0929 4.82526 59.0687 4.81521C59.0446 4.80516 59.0187 4.79999 58.9925 4.79999V4.79999ZM58.9925 16.9787H52.3543C52.3017 16.978 52.2515 16.9567 52.2143 16.9193C52.1771 16.882 52.1558 16.8315 52.1552 16.7787V13.168C52.1552 13.1149 52.1761 13.0641 52.2135 13.0266C52.2508 12.9891 52.3015 12.968 52.3543 12.968H58.4907C58.5435 12.968 58.5941 12.9469 58.6315 12.9094C58.6688 12.8719 58.6898 12.821 58.6898 12.768V10.9333C58.6898 10.8803 58.6688 10.8294 58.6315 10.7919C58.5941 10.7544 58.5435 10.7333 58.4907 10.7333H50.1292C50.0501 10.734 49.9744 10.7661 49.9187 10.8225C49.863 10.879 49.8318 10.9552 49.8318 11.0347V18.9013C49.8318 18.9805 49.8631 19.0565 49.9189 19.1125C49.9747 19.1685 50.0503 19.2 50.1292 19.2H58.9925C59.0453 19.2 59.096 19.1789 59.1333 19.1414C59.1707 19.1039 59.1917 19.053 59.1917 19V17.1787C59.192 17.1523 59.1871 17.1261 59.1772 17.1017C59.1674 17.0773 59.1527 17.0551 59.1341 17.0364C59.1156 17.0178 59.0935 17.0031 59.0692 16.9931C59.0448 16.9832 59.0188 16.9783 58.9925 16.9787V16.9787Z" fill="black" />
        <path d="M19.1818 1.21867L14.1845 8.66667C14.1036 8.77417 14.0661 8.90847 14.0798 9.04257C14.0934 9.17667 14.1571 9.30061 14.258 9.38947C14.3589 9.47833 14.4896 9.52552 14.6238 9.52153C14.7579 9.51755 14.8856 9.46269 14.9811 9.368L19.8908 5.088C19.9191 5.06189 19.9545 5.04471 19.9925 5.03859C20.0304 5.03248 20.0694 5.03769 20.1044 5.0536C20.1395 5.0695 20.1691 5.09538 20.1897 5.12804C20.2102 5.16071 20.2208 5.19871 20.22 5.23733V18.648C20.2196 18.6887 20.2068 18.7283 20.1834 18.7616C20.16 18.7948 20.127 18.8201 20.0889 18.834C20.0508 18.8479 20.0094 18.8498 19.9702 18.8394C19.931 18.8291 19.8959 18.8069 19.8695 18.776L4.99991 0.909333C4.76212 0.625966 4.46586 0.397881 4.13163 0.24087C3.7974 0.0838588 3.43319 0.00167216 3.0642 0L2.54642 0C1.87107 0 1.22338 0.269433 0.745829 0.749026C0.268283 1.22862 0 1.87909 0 2.55733L0 21.4427C0 22.1209 0.268283 22.7714 0.745829 23.251C1.22338 23.7306 1.87107 24 2.54642 24V24C2.98157 23.9999 3.40945 23.8879 3.78923 23.6746C4.169 23.4612 4.488 23.1537 4.71579 22.7813L9.71304 15.3333C9.79402 15.2258 9.83146 15.0915 9.81783 14.9574C9.80421 14.8233 9.74053 14.6994 9.6396 14.6105C9.53867 14.5217 9.40798 14.4745 9.27382 14.4785C9.13966 14.4825 9.01198 14.5373 8.91645 14.632L4.00683 18.912C3.97848 18.9381 3.94312 18.9553 3.90513 18.9614C3.86715 18.9675 3.82821 18.9623 3.79315 18.9464C3.75809 18.9305 3.72845 18.9046 3.70791 18.872C3.68736 18.8393 3.67681 18.8013 3.67757 18.7627V5.352C3.67797 5.31128 3.69074 5.27166 3.71416 5.23843C3.73758 5.20519 3.77055 5.17993 3.80865 5.16601C3.84676 5.1521 3.88818 5.1502 3.92739 5.16056C3.9666 5.17092 4.00172 5.19305 4.02807 5.224L18.8977 23.0907C19.1355 23.374 19.4317 23.6021 19.766 23.7591C20.1002 23.9161 20.4644 23.9983 20.8334 24H21.3644C22.0375 23.9965 22.6818 23.7255 23.1565 23.2463C23.6311 22.7671 23.8976 22.1186 23.8976 21.4427V2.55733C23.8976 1.87909 23.6293 1.22862 23.1518 0.749026C22.6742 0.269433 22.0265 0 21.3512 0V0C20.916 5.24289e-05 20.4881 0.112096 20.1084 0.325439C19.7286 0.538782 19.4096 0.846307 19.1818 1.21867V1.21867Z" fill="black" />
    </g>
    <defs>
        <clipPath id="clip0_185_457">
            <rect width="90.8108" height="24" fill="white" />
        </clipPath>
    </defs>
</svg>
    