<svg width="14" height="14" viewBox="0 0 14 14" fill="none" xmlns="http://www.w3.org/2000/svg">
    <circle cx="7" cy="7" r="6.5" stroke="#262626" />
    <path d="M8.81591 4.30458L7.56174 6.16666C7.54388 6.19348 7.53633 6.22585 7.5405 6.2578C7.54466 6.28976 7.56025 6.31912 7.58439 6.34046C7.60853 6.36181 7.63958 6.37369 7.6718 6.37391C7.70402 6.37413 7.73523 6.36267 7.75966 6.34166L8.99424 5.27083C9.00148 5.26435 9.01044 5.26013 9.02004 5.25866C9.02964 5.2572 9.03945 5.25856 9.04829 5.26258C9.05712 5.2666 9.0646 5.27311 9.0698 5.2813C9.075 5.2895 9.0777 5.29904 9.07758 5.30874V8.66124C9.07757 8.67151 9.07441 8.68152 9.06852 8.68992C9.06263 8.69833 9.05429 8.70472 9.04465 8.70822C9.035 8.71172 9.02451 8.71217 9.0146 8.70951C9.00468 8.70684 8.99583 8.70119 8.98924 8.69333L5.25758 4.22624C5.19755 4.15537 5.12281 4.09841 5.03856 4.05934C4.9543 4.02027 4.86254 4.00002 4.76966 3.99999H4.63924C4.46973 3.99999 4.30715 4.06733 4.18728 4.1872C4.06742 4.30707 4.00008 4.46964 4.00008 4.63916V9.36083C4.00008 9.53034 4.06742 9.69292 4.18728 9.81279C4.30715 9.93265 4.46973 9.99999 4.63924 9.99999C4.74854 10 4.85602 9.97204 4.95143 9.91872C5.04684 9.8654 5.12699 9.78852 5.18424 9.69541L6.43841 7.83333C6.45627 7.80651 6.46382 7.77413 6.45966 7.74218C6.45549 7.71023 6.4399 7.68087 6.41576 7.65952C6.39162 7.63818 6.36057 7.6263 6.32835 7.62608C6.29613 7.62586 6.26492 7.63731 6.24049 7.65833L5.00591 8.72916C4.99867 8.73563 4.98971 8.73986 4.98011 8.74132C4.97052 8.74279 4.9607 8.74143 4.95186 8.73741C4.94303 8.73339 4.93555 8.72688 4.93035 8.71868C4.92515 8.71048 4.92245 8.70095 4.92258 8.69124V5.33791C4.92258 5.32765 4.92574 5.31763 4.93163 5.30923C4.93752 5.30082 4.94586 5.29444 4.95551 5.29093C4.96515 5.28743 4.97565 5.28698 4.98556 5.28964C4.99547 5.29231 5.00432 5.29796 5.01091 5.30583L8.74216 9.77374C8.80218 9.84462 8.87692 9.90157 8.96118 9.94065C9.04544 9.97972 9.1372 9.99997 9.23008 9.99999H9.36049C9.44446 10 9.52762 9.98356 9.60522 9.95146C9.68282 9.91936 9.75332 9.87229 9.81272 9.81293C9.87212 9.75357 9.91924 9.68309 9.95138 9.60552C9.98353 9.52795 10.0001 9.4448 10.0001 9.36083V4.63916C10.0001 4.46964 9.93274 4.30707 9.81287 4.1872C9.693 4.06733 9.53043 3.99999 9.36091 3.99999C9.25161 3.99996 9.14413 4.02795 9.04872 4.08127C8.95331 4.13459 8.87316 4.21147 8.81591 4.30458Z" fill="black" />
</svg>
    