<svg width="40" height="40" viewBox="0 0 40 40" fill="none" xmlns="http://www.w3.org/2000/svg">
    <rect opacity="0.15" width="40" height="40" rx="20" fill="#5F8AFA" />
    <path d="M27.7372 26.4753L24.7159 23.463C25.6907 22.2211 26.2196 20.6876 26.2176 19.1088C26.2176 17.7028 25.8007 16.3284 25.0196 15.1594C24.2385 13.9903 23.1282 13.0792 21.8293 12.5411C20.5303 12.0031 19.1009 11.8623 17.722 12.1366C16.343 12.4109 15.0763 13.0879 14.0821 14.0821C13.0879 15.0763 12.4109 16.343 12.1366 17.722C11.8623 19.1009 12.0031 20.5303 12.5411 21.8293C13.0792 23.1282 13.9903 24.2385 15.1594 25.0196C16.3284 25.8007 17.7028 26.2176 19.1088 26.2176C20.6876 26.2196 22.2211 25.6907 23.463 24.7159L26.4753 27.7372C26.5579 27.8204 26.6562 27.8865 26.7645 27.9317C26.8728 27.9768 26.9889 28 27.1062 28C27.2236 28 27.3397 27.9768 27.448 27.9317C27.5563 27.8865 27.6545 27.8204 27.7372 27.7372C27.8204 27.6545 27.8865 27.5563 27.9317 27.448C27.9768 27.3397 28 27.2236 28 27.1062C28 26.9889 27.9768 26.8728 27.9317 26.7645C27.8865 26.6562 27.8204 26.5579 27.7372 26.4753ZM13.7772 19.1088C13.7772 18.0543 14.0899 17.0235 14.6757 16.1467C15.2616 15.27 16.0943 14.5866 17.0685 14.1831C18.0427 13.7795 19.1147 13.6739 20.149 13.8797C21.1832 14.0854 22.1332 14.5932 22.8788 15.3388C23.6245 16.0844 24.1323 17.0344 24.338 18.0687C24.5437 19.1029 24.4381 20.1749 24.0346 21.1491C23.6311 22.1234 22.9477 22.9561 22.0709 23.5419C21.1941 24.1277 20.1633 24.4404 19.1088 24.4404C17.6948 24.4404 16.3387 23.8787 15.3388 22.8788C14.3389 21.879 13.7772 20.5229 13.7772 19.1088Z" fill="#5F8AFA" />
</svg>
    